<svg width="34" height="34" viewBox="0 0 34 34" fill="white" xmlns="http://www.w3.org/2000/svg">
<path d="M0.394499 2.30003C-0.1315 1.77403 -0.1315 0.920979 0.394499 0.394705C0.920499 -0.131568 1.77355 -0.131568 2.29983 0.394705L16.9999 15.0947L31.6999 0.394705C32.2259 -0.131568 33.0789 -0.131568 33.6055 0.394705C34.1315 0.920702 34.1315 1.77403 33.6055 2.30003L18.9049 16.9997L33.6052 31.7C34.1312 32.226 34.1312 33.079 33.6052 33.6053C33.0789 34.1316 32.2259 34.1316 31.6996 33.6053L16.9996 18.9053L2.29983 33.6053C1.77383 34.1316 0.920775 34.1316 0.394499 33.6053C-0.1315 33.0793 -0.1315 32.2262 0.394499 31.7L15.0945 16.9997L0.394499 2.30003Z"/>
</svg>
