<svg width="572" height="42" viewBox="0 0 572 42" fill="none" xmlns="http://www.w3.org/2000/svg">
<path fill-rule="evenodd" clip-rule="evenodd" d="M83.1904 2L44.0216 20.9682L5.02609 2L0 7.14091L30.3298 41L44.0216 26.9955L57.8867 41L88.2165 7.14091L83.1904 2ZM111.155 37.5071V12.8344H117.676V15.4003C119.511 14.3641 121.25 13.5745 122.892 13.0811C124.534 12.5876 126.128 12.3409 127.577 12.3409C128.06 12.3409 128.592 12.3903 129.123 12.4889C129.218 12.5083 129.314 12.5277 129.413 12.5474C129.816 12.6283 130.251 12.7154 130.717 12.8344V18.9039C130.508 18.843 130.263 18.801 129.993 18.7545C129.825 18.7256 129.646 18.695 129.461 18.6571C128.978 18.5584 128.447 18.5091 127.915 18.5091C126.273 18.5091 124.679 18.8052 123.134 19.2986C121.588 19.7921 119.849 20.6309 117.917 21.7165V37.5071H111.155ZM153.91 37.5071V32.8193H153.668C152.702 34.645 151.398 35.9774 149.756 36.7669C148.114 37.6058 146.037 38.0005 143.526 38.0005C141.69 38.0005 140.048 37.7045 138.502 37.1123C136.957 36.5202 135.604 35.6813 134.494 34.5957C133.383 33.5101 132.513 32.2271 131.885 30.6974C131.257 29.217 130.968 27.5393 130.968 25.6642C130.968 23.6904 131.209 21.9139 131.74 20.2855C132.223 18.6571 133.045 17.2261 134.155 16.0418C135.218 14.8575 136.619 13.9693 138.309 13.3278C139.951 12.6863 141.932 12.3409 144.25 12.3409C145.699 12.3409 147.148 12.5383 148.645 12.8344C150.143 13.1798 151.833 13.6732 153.668 14.3147V3.45873H160.43V37.5071H153.91ZM153.668 24.1838V20.7296C152.413 20.0881 151.109 19.5453 149.708 19.1506C148.307 18.7558 146.907 18.5091 145.458 18.5091C142.849 18.5091 140.966 19.0519 139.758 20.1375C138.551 21.2231 137.971 22.9008 137.971 25.1707C137.971 26.207 138.068 27.1445 138.357 27.9341C138.599 28.7729 139.034 29.4638 139.613 30.0559C140.193 30.6481 140.966 31.0922 141.932 31.3882C142.898 31.6843 144.153 31.8324 145.602 31.8324C148.162 31.8324 150.143 31.1909 151.543 29.8585C152.944 28.5262 153.668 26.6511 153.668 24.1838ZM189.644 29.8585V36.2734C188.292 36.8656 186.698 37.2604 184.862 37.5564C183.027 37.8525 181.192 38.0005 179.26 38.0005C176.893 38.0005 174.816 37.7045 172.981 37.063C171.145 36.4708 169.6 35.5826 168.344 34.4477C167.088 33.3621 166.122 31.9804 165.494 30.4013C164.818 28.8223 164.528 27.0952 164.528 25.1707C164.528 23.2956 164.818 21.5192 165.494 19.9401C166.122 18.3611 167.088 17.0287 168.344 15.8938C169.6 14.8082 171.145 13.92 172.981 13.2785C174.816 12.6863 176.893 12.3409 179.26 12.3409C181.192 12.3409 183.027 12.4889 184.862 12.785C186.698 13.0811 188.292 13.5252 189.644 14.068V20.4829C187.905 19.7427 186.263 19.2493 184.621 18.9532C182.979 18.6571 181.385 18.5091 179.936 18.5091C176.99 18.5091 174.864 19.1012 173.512 20.2855C172.16 21.4698 171.532 23.0982 171.532 25.1707C171.532 27.2926 172.16 28.921 173.512 30.1053C174.864 31.2896 176.99 31.8324 179.936 31.8324C181.385 31.8324 182.979 31.7337 184.621 31.4376C186.263 31.1415 187.905 30.6481 189.644 29.8585ZM200.493 37.5071H193.731V3.45873H200.493V37.5071ZM205.541 37.5071V12.8344H212.062V15.4003C213.897 14.3641 215.636 13.5745 217.278 13.0811C218.92 12.5876 220.514 12.3409 221.963 12.3409C222.446 12.3409 222.977 12.3903 223.509 12.4889C223.604 12.5083 223.7 12.5277 223.799 12.5474C224.202 12.6283 224.637 12.7154 225.103 12.8344V18.9039C224.894 18.843 224.649 18.8009 224.379 18.7545C224.21 18.7256 224.032 18.695 223.847 18.6571C223.364 18.5584 222.833 18.5091 222.301 18.5091C220.659 18.5091 219.065 18.8052 217.52 19.2986C215.974 19.7921 214.235 20.6309 212.303 21.7165V37.5071H205.541ZM223.54 36.9643C222.767 36.2734 222.429 35.3852 222.429 34.2009C222.429 33.1153 222.767 32.1778 223.54 31.4869C224.265 30.7961 225.279 30.4507 226.535 30.4507C227.79 30.4507 228.756 30.7961 229.529 31.4869C230.254 32.1778 230.64 33.1153 230.64 34.2009C230.64 35.3852 230.254 36.2734 229.529 36.9643C228.756 37.6551 227.79 38.0005 226.535 38.0005C225.279 38.0005 224.265 37.6551 223.54 36.9643ZM234.021 36.2734V30.1053C235.76 30.9441 237.643 31.4869 239.575 31.7337C241.507 31.9804 243.536 32.0791 245.613 32.0791C247.159 32.0791 248.318 31.9804 249.09 31.6843C249.815 31.4376 250.201 30.9935 250.201 30.3026C250.201 30.0066 250.008 29.7598 249.718 29.5625C249.429 29.3651 249.042 29.1677 248.607 29.0197C248.125 28.8716 247.641 28.7236 247.11 28.6249C246.722 28.5529 246.36 28.4546 246.043 28.3683C245.925 28.3364 245.814 28.3061 245.71 28.2795L241.604 27.2432C240.155 26.8978 238.948 26.4537 237.982 25.9109C236.967 25.4175 236.146 24.8253 235.518 24.1838C234.89 23.5423 234.456 22.8515 234.166 22.062C233.876 21.3218 233.78 20.5323 233.78 19.7427C233.78 18.9039 233.973 18.0156 234.407 17.1274C234.842 16.2392 235.518 15.4497 236.388 14.7588C237.257 14.068 238.416 13.4759 239.769 13.0317C241.121 12.5876 242.763 12.3409 244.647 12.3409C246.82 12.3409 248.849 12.4889 250.684 12.785C252.52 13.0811 254.162 13.5252 255.514 14.068V20.2362C253.776 19.496 252.085 19.0025 250.443 18.7065C248.801 18.4104 247.11 18.2624 245.371 18.2624C243.922 18.2624 242.812 18.4104 242.039 18.6571C241.266 18.9532 240.88 19.3973 240.88 20.0388C240.88 20.3349 241.024 20.5816 241.314 20.779C241.604 20.9764 241.99 21.1737 242.473 21.3218C242.908 21.4698 243.391 21.6178 243.922 21.7165L245.371 22.0126L249.38 22.9995C250.829 23.3943 252.037 23.8384 253.051 24.3318C254.017 24.8746 254.838 25.4668 255.466 26.1083C256.046 26.7498 256.48 27.4406 256.77 28.2301C257.06 29.0197 257.205 29.8092 257.205 30.5987C257.205 31.3882 257.012 32.2271 256.625 33.1153C256.239 34.0036 255.563 34.7931 254.693 35.4839C253.776 36.2241 252.616 36.8162 251.167 37.3097C249.718 37.8032 247.98 38.0005 245.854 38.0005C243.439 38.0005 241.169 37.9018 239.141 37.6058C237.064 37.359 235.373 36.9149 234.021 36.2734ZM284.526 29.8585V36.2734C283.174 36.8656 281.58 37.2604 279.744 37.5564C277.909 37.8525 276.074 38.0005 274.142 38.0005C271.775 38.0005 269.698 37.7045 267.863 37.063C266.027 36.4708 264.482 35.5826 263.226 34.4477C261.97 33.3621 261.004 31.9804 260.376 30.4013C259.7 28.8223 259.41 27.0952 259.41 25.1707C259.41 23.2956 259.7 21.5192 260.376 19.9401C261.004 18.3611 261.97 17.0287 263.226 15.8938C264.482 14.8082 266.027 13.92 267.863 13.2785C269.698 12.6863 271.775 12.3409 274.142 12.3409C276.074 12.3409 277.909 12.4889 279.744 12.785C281.58 13.0811 283.174 13.5252 284.526 14.068V20.4829C282.787 19.7427 281.145 19.2493 279.503 18.9532C277.861 18.6571 276.267 18.5091 274.818 18.5091C271.872 18.5091 269.746 19.1012 268.394 20.2855C267.042 21.4698 266.414 23.0982 266.414 25.1707C266.414 27.2926 267.042 28.921 268.394 30.1053C269.746 31.2896 271.872 31.8324 274.818 31.8324C276.267 31.8324 277.861 31.7337 279.503 31.4376C281.145 31.1415 282.787 30.6481 284.526 29.8585ZM295.375 37.5071H288.613V3.45873H295.375V14.8082C296.582 14.3147 297.645 13.92 298.611 13.6239C299.528 13.3278 300.398 13.0811 301.171 12.8837C301.943 12.6863 302.62 12.5876 303.296 12.4889C303.972 12.3903 304.648 12.3409 305.373 12.3409C306.918 12.3409 308.319 12.5876 309.575 13.0317C310.83 13.4759 311.941 14.1173 312.859 14.9069C313.728 15.7457 314.453 16.7327 314.936 17.8676C315.419 19.0519 315.66 20.3349 315.66 21.7165V37.5071H308.898V24.1838C308.898 22.4074 308.415 21.0257 307.449 20.0388C306.483 19.0519 305.131 18.5091 303.392 18.5091C302.523 18.5091 301.412 18.7558 300.011 19.1999C298.562 19.6934 297.017 20.3349 295.375 21.2231V37.5071ZM320.282 30.5C319.606 28.921 319.268 27.1445 319.268 25.1707C319.268 23.1969 319.606 21.4205 320.282 19.8414C320.958 18.2624 321.924 16.93 323.18 15.7951C324.436 14.7095 325.981 13.8213 327.817 13.2291C329.652 12.637 331.681 12.3409 333.999 12.3409C336.269 12.3409 338.298 12.637 340.133 13.2291C341.969 13.8213 343.514 14.7095 344.77 15.7951C346.026 16.93 347.04 18.2624 347.716 19.8414C348.392 21.4205 348.73 23.1969 348.73 25.1707C348.73 27.1445 348.392 28.921 347.716 30.5C347.04 32.0791 346.026 33.4608 344.77 34.5464C343.514 35.6813 341.969 36.5202 340.133 37.1123C338.298 37.7045 336.269 38.0005 333.999 38.0005C331.681 38.0005 329.652 37.7045 327.817 37.1123C325.981 36.5202 324.436 35.6813 323.18 34.5464C321.924 33.4608 320.958 32.0791 320.282 30.5ZM333.999 18.5091C328.831 18.5091 326.271 20.7296 326.271 25.1707C326.271 29.6118 328.831 31.8324 333.999 31.8324C339.119 31.8324 341.727 29.6118 341.727 25.1707C341.727 20.7296 339.119 18.5091 333.999 18.5091ZM352.663 30.5C351.987 28.921 351.649 27.1445 351.649 25.1707C351.649 23.1969 351.987 21.4205 352.663 19.8414C353.34 18.2624 354.306 16.93 355.561 15.7951C356.817 14.7095 358.363 13.8213 360.198 13.2291C362.034 12.637 364.062 12.3409 366.381 12.3409C368.651 12.3409 370.679 12.637 372.515 13.2291C374.35 13.8213 375.895 14.7095 377.151 15.7951C378.407 16.93 379.421 18.2624 380.098 19.8414C380.774 21.4205 381.112 23.1969 381.112 25.1707C381.112 27.1445 380.774 28.921 380.098 30.5C379.421 32.0791 378.407 33.4608 377.151 34.5464C375.895 35.6813 374.35 36.5202 372.515 37.1123C370.679 37.7045 368.651 38.0005 366.381 38.0005C364.062 38.0005 362.034 37.7045 360.198 37.1123C358.363 36.5202 356.817 35.6813 355.561 34.5464C354.306 33.4608 353.34 32.0791 352.663 30.5ZM366.381 18.5091C361.212 18.5091 358.653 20.7296 358.653 25.1707C358.653 29.6118 361.212 31.8324 366.381 31.8324C371.5 31.8324 374.108 29.6118 374.108 25.1707C374.108 20.7296 371.5 18.5091 366.381 18.5091ZM392 37.5071H385.238V3.45873H392V37.5071Z" fill="#F51B1B"/>
<path d="M428.75 13.75H437.25C438.533 13.75 439.642 13.8917 440.575 14.175C441.525 14.4583 442.308 14.8583 442.925 15.375C443.542 15.8917 444 16.5167 444.3 17.25C444.6 17.9667 444.75 18.7583 444.75 19.625C444.75 20.5083 444.6 21.3083 444.3 22.025C444 22.7417 443.542 23.3583 442.925 23.875C442.308 24.3917 441.525 24.7917 440.575 25.075C439.642 25.3583 438.533 25.5 437.25 25.5H432.5V31H428.75V13.75ZM437.625 22C438.692 22 439.475 21.7917 439.975 21.375C440.492 20.9583 440.75 20.375 440.75 19.625C440.75 18.875 440.483 18.2917 439.95 17.875C439.433 17.4583 438.575 17.25 437.375 17.25H432.5V22H437.625ZM445.749 24.75C445.749 23.75 445.924 22.85 446.274 22.05C446.624 21.25 447.124 20.5667 447.774 20C448.441 19.4333 449.241 19 450.174 18.7C451.124 18.4 452.191 18.25 453.374 18.25C454.557 18.25 455.616 18.4 456.549 18.7C457.499 19 458.299 19.4333 458.949 20C459.616 20.5667 460.124 21.25 460.474 22.05C460.824 22.85 460.999 23.75 460.999 24.75C460.999 25.75 460.824 26.65 460.474 27.45C460.124 28.25 459.616 28.9333 458.949 29.5C458.299 30.0667 457.499 30.5 456.549 30.8C455.616 31.1 454.557 31.25 453.374 31.25C452.191 31.25 451.124 31.1 450.174 30.8C449.241 30.5 448.441 30.0667 447.774 29.5C447.124 28.9333 446.624 28.25 446.274 27.45C445.924 26.65 445.749 25.75 445.749 24.75ZM449.374 24.75C449.374 27 450.707 28.125 453.374 28.125C456.041 28.125 457.374 27 457.374 24.75C457.374 22.5 456.041 21.375 453.374 21.375C450.707 21.375 449.374 22.5 449.374 24.75ZM463.51 18.5H466.885V19.55C467.951 19.0833 468.86 18.75 469.61 18.55C470.36 18.35 471.076 18.25 471.76 18.25C472.526 18.25 473.268 18.4167 473.985 18.75C474.701 19.0667 475.293 19.4917 475.76 20.025C476.893 19.3917 477.951 18.9417 478.935 18.675C479.918 18.3917 480.776 18.25 481.51 18.25C482.193 18.25 482.835 18.3583 483.435 18.575C484.051 18.7917 484.585 19.1 485.035 19.5C485.485 19.9 485.843 20.4 486.11 21C486.376 21.5833 486.51 22.25 486.51 23V31H483.01V24.25C483.01 23.75 482.943 23.3167 482.81 22.95C482.676 22.5833 482.493 22.2833 482.26 22.05C482.043 21.8167 481.776 21.65 481.46 21.55C481.16 21.4333 480.843 21.375 480.51 21.375C480.076 21.375 479.51 21.5 478.81 21.75C478.126 21.9833 477.443 22.3167 476.76 22.75V31H473.26V24.25C473.26 23.75 473.193 23.3167 473.06 22.95C472.926 22.5833 472.743 22.2833 472.51 22.05C472.293 21.8167 472.026 21.65 471.71 21.55C471.41 21.4333 471.093 21.375 470.76 21.375C470.326 21.375 469.76 21.5 469.06 21.75C468.376 21.9833 467.693 22.3167 467.01 22.75V31H463.51V18.5ZM488.889 24.75C488.889 23.75 489.064 22.85 489.414 22.05C489.764 21.25 490.264 20.5667 490.914 20C491.58 19.4333 492.38 19 493.314 18.7C494.264 18.4 495.33 18.25 496.514 18.25C497.697 18.25 498.755 18.4 499.689 18.7C500.639 19 501.439 19.4333 502.089 20C502.755 20.5667 503.264 21.25 503.614 22.05C503.964 22.85 504.139 23.75 504.139 24.75C504.139 25.75 503.964 26.65 503.614 27.45C503.264 28.25 502.755 28.9333 502.089 29.5C501.439 30.0667 500.639 30.5 499.689 30.8C498.755 31.1 497.697 31.25 496.514 31.25C495.33 31.25 494.264 31.1 493.314 30.8C492.38 30.5 491.58 30.0667 490.914 29.5C490.264 28.9333 489.764 28.25 489.414 27.45C489.064 26.65 488.889 25.75 488.889 24.75ZM492.514 24.75C492.514 27 493.847 28.125 496.514 28.125C499.18 28.125 500.514 27 500.514 24.75C500.514 22.5 499.18 21.375 496.514 21.375C493.847 21.375 492.514 22.5 492.514 24.75ZM518.024 28.625H517.899C517.399 29.5417 516.724 30.2083 515.874 30.625C515.041 31.0417 513.966 31.25 512.649 31.25C511.716 31.25 510.849 31.1 510.049 30.8C509.249 30.5 508.558 30.075 507.974 29.525C507.408 28.975 506.958 28.3167 506.624 27.55C506.308 26.7833 506.149 25.9333 506.149 25C506.149 24 506.283 23.0917 506.549 22.275C506.816 21.4417 507.233 20.725 507.799 20.125C508.366 19.525 509.083 19.0667 509.949 18.75C510.816 18.4167 511.841 18.25 513.024 18.25C513.774 18.25 514.533 18.3333 515.299 18.5C516.083 18.6667 516.949 18.9167 517.899 19.25V13.75H521.399V31H518.024V28.625ZM517.899 22.5C517.266 22.1667 516.583 21.9 515.849 21.7C515.133 21.4833 514.399 21.375 513.649 21.375C512.316 21.375 511.333 21.65 510.699 22.2C510.083 22.75 509.774 23.6 509.774 24.75C509.774 25.2667 509.841 25.7333 509.974 26.15C510.108 26.5667 510.324 26.925 510.624 27.225C510.924 27.5083 511.324 27.7333 511.824 27.9C512.341 28.05 512.974 28.125 513.724 28.125C515.058 28.125 516.083 27.7917 516.799 27.125C517.533 26.4417 517.899 25.4833 517.899 24.25V22.5ZM524.021 24.75C524.021 23.75 524.196 22.85 524.546 22.05C524.896 21.25 525.396 20.5667 526.046 20C526.712 19.4333 527.512 19 528.446 18.7C529.396 18.4 530.462 18.25 531.646 18.25C532.829 18.25 533.887 18.4 534.821 18.7C535.771 19 536.571 19.4333 537.221 20C537.887 20.5667 538.396 21.25 538.746 22.05C539.096 22.85 539.271 23.75 539.271 24.75C539.271 25.75 539.096 26.65 538.746 27.45C538.396 28.25 537.887 28.9333 537.221 29.5C536.571 30.0667 535.771 30.5 534.821 30.8C533.887 31.1 532.829 31.25 531.646 31.25C530.462 31.25 529.396 31.1 528.446 30.8C527.512 30.5 526.712 30.0667 526.046 29.5C525.396 28.9333 524.896 28.25 524.546 27.45C524.196 26.65 524.021 25.75 524.021 24.75ZM527.646 24.75C527.646 27 528.979 28.125 531.646 28.125C534.312 28.125 535.646 27 535.646 24.75C535.646 22.5 534.312 21.375 531.646 21.375C528.979 21.375 527.646 22.5 527.646 24.75ZM541.781 18.5H545.156V19.8C546.106 19.2667 547.006 18.875 547.856 18.625C548.723 18.375 549.531 18.25 550.281 18.25C550.548 18.25 550.815 18.275 551.081 18.325C551.348 18.3583 551.623 18.4167 551.906 18.5V21.575C551.74 21.525 551.523 21.4833 551.256 21.45C551.006 21.4 550.74 21.375 550.456 21.375C549.606 21.375 548.781 21.5083 547.981 21.775C547.181 22.025 546.281 22.4333 545.281 23V31H541.781V18.5ZM552.536 24.75C552.536 23.75 552.711 22.85 553.061 22.05C553.411 21.25 553.911 20.5667 554.561 20C555.228 19.4333 556.028 19 556.961 18.7C557.911 18.4 558.978 18.25 560.161 18.25C561.344 18.25 562.403 18.4 563.336 18.7C564.286 19 565.086 19.4333 565.736 20C566.403 20.5667 566.911 21.25 567.261 22.05C567.611 22.85 567.786 23.75 567.786 24.75C567.786 25.75 567.611 26.65 567.261 27.45C566.911 28.25 566.403 28.9333 565.736 29.5C565.086 30.0667 564.286 30.5 563.336 30.8C562.403 31.1 561.344 31.25 560.161 31.25C558.978 31.25 557.911 31.1 556.961 30.8C556.028 30.5 555.228 30.0667 554.561 29.5C553.911 28.9333 553.411 28.25 553.061 27.45C552.711 26.65 552.536 25.75 552.536 24.75ZM556.161 24.75C556.161 27 557.494 28.125 560.161 28.125C562.828 28.125 564.161 27 564.161 24.75C564.161 22.5 562.828 21.375 560.161 21.375C557.494 21.375 556.161 22.5 556.161 24.75Z" fill="white"/>
<path d="M421.43 20.9896L402.19 20.9896L402.19 2.55795e-05C403.491 11.5443 412.317 19.9401 421.43 20.9896Z" fill="white"/>
<path d="M421.43 20.6397L402.19 20.6397L402.19 41.6292C403.491 30.0849 412.317 21.6891 421.43 20.6397Z" fill="white"/>
</svg>
