<svg width="41" height="40" viewBox="0 0 41 40" fill="none" xmlns="http://www.w3.org/2000/svg">
<g clip-path="url(#clip0_499_117)">
<path d="M35.4344 7.48353C36.0283 8.22851 36.5788 9.01732 37.1227 9.99827C39.1213 13.585 39.9655 17.6605 39.6218 21.6416C39.2848 25.5317 37.81 29.3376 35.1608 32.5198C34.2098 33.6625 33.1888 34.6704 32.1145 35.5435C28.4075 38.5538 24.0132 40.0404 19.6323 40C15.2513 39.9561 10.8871 38.3886 7.2402 35.2873C6.17582 34.3839 5.17818 33.3558 4.26729 32.2096C2.12854 29.5263 0.753867 26.3812 0.236696 23.0608C-0.273802 19.8011 0.0398373 16.3762 1.26103 13.0625C2.4255 9.91063 4.2039 7.10261 6.52617 4.90136C8.73499 2.80798 11.441 1.26745 14.574 0.498865C15.555 0.259526 16.556 0.10109 17.5736 0.0370416C18.5946 -0.0303779 19.639 -0.00678106 20.71 0.111203C21.3807 0.185365 21.8645 0.795511 21.7911 1.47308C21.7176 2.15064 21.1137 2.63943 20.4431 2.56527C19.5155 2.46077 18.6113 2.44055 17.7271 2.49785C16.8429 2.55516 15.9821 2.69 15.1479 2.89226C12.4419 3.55297 10.1097 4.8845 8.19446 6.69809C6.14913 8.63977 4.5776 11.1242 3.54326 13.9221C2.47221 16.8245 2.19527 19.8247 2.64238 22.6731C3.09615 25.5688 4.29732 28.3162 6.16248 30.6624C6.98661 31.6972 7.87081 32.6108 8.80172 33.403C12.0015 36.1233 15.8186 37.4987 19.6456 37.5358C23.4727 37.5729 27.3198 36.2683 30.5763 33.6221C31.5439 32.8366 32.4515 31.9433 33.2889 30.9354C35.5979 28.1645 36.8824 24.8373 37.1794 21.4293C37.483 17.9335 36.739 14.3536 34.9873 11.2051C34.4567 10.2545 33.9162 9.496 33.3156 8.7645L33.1388 13.7198C33.1154 14.4008 32.5516 14.9334 31.8776 14.9064C31.2036 14.8828 30.6764 14.3131 30.7031 13.6322L30.9867 5.73736C31.0101 5.05642 31.5739 4.52381 32.2479 4.55078C32.2913 4.55078 32.3313 4.55752 32.3714 4.56089L39.9454 5.63623C40.6128 5.73062 41.0799 6.35088 40.9864 7.02845C40.893 7.70264 40.2791 8.17458 39.6084 8.08019L35.4344 7.48353Z" fill="white"/>
</g>
<defs>
<clipPath id="clip0_499_117">
<rect width="41" height="40" fill="white"/>
</clipPath>
</defs>
</svg>
