<svg width="44" height="44" viewBox="0 0 44 44" fill="none" xmlns="http://www.w3.org/2000/svg">
<g clip-path="url(#clip0_499_114)">
<path d="M35.0826 6.69775C34.9645 6.57959 34.8427 6.49437 34.7174 6.44137C34.5999 6.3916 34.4628 6.36725 34.3056 6.36725C34.1477 6.36725 34.0077 6.39232 33.8888 6.44281C33.7656 6.49473 33.6468 6.57852 33.5329 6.69417L33.5254 6.70169L31.3028 8.91745C30.9698 9.24867 30.4553 9.28555 30.0818 9.02952C29.8204 8.86051 29.5418 8.69759 29.2497 8.53968C28.9399 8.3721 28.6363 8.22171 28.3398 8.08564C28.0308 7.94456 27.7153 7.81172 27.3941 7.68711C27.103 7.57396 26.7786 7.45866 26.4249 7.34193C26.0199 7.20837 25.7624 6.83167 25.7624 6.42669V3.01855C25.7624 2.85527 25.7366 2.71097 25.6854 2.58529C25.6342 2.46104 25.5562 2.34538 25.4484 2.23796C25.3435 2.13304 25.2296 2.05534 25.105 2.00485C24.9797 1.95365 24.835 1.92822 24.6714 1.92822H20.3942C20.2428 1.92822 20.1085 1.95257 19.991 2.00127C19.8664 2.05247 19.7443 2.13626 19.6237 2.25299L19.6222 2.25407C19.5162 2.36006 19.4382 2.47285 19.3881 2.59281C19.3365 2.71563 19.3107 2.85742 19.3107 3.01855V6.1388C19.3107 6.61325 18.968 7.00749 18.5169 7.08805C18.1742 7.16969 17.8577 7.2542 17.5694 7.34264C17.2536 7.43932 16.936 7.54925 16.6177 7.6735C16.6019 7.67959 16.5862 7.68532 16.5704 7.69033C16.2922 7.79847 15.9989 7.9238 15.691 8.06595C15.378 8.21025 15.0866 8.35671 14.8166 8.50387C14.436 8.7112 13.9769 8.63421 13.6833 8.34525L13.6829 8.34561L11.2216 5.91966C11.214 5.91214 11.2065 5.90462 11.199 5.8971C11.0941 5.7861 10.9838 5.70518 10.8681 5.65469C10.7571 5.60635 10.6257 5.58164 10.4725 5.58164C10.3203 5.58164 10.1842 5.60742 10.0646 5.65863C9.93358 5.71449 9.80825 5.80186 9.68794 5.91966L9.68723 5.92038L6.70128 8.91315L6.69949 8.9153L6.70128 8.91709C6.57882 9.03955 6.49217 9.1613 6.44096 9.28232C6.39119 9.39977 6.36649 9.53691 6.36649 9.69375C6.36649 9.85202 6.39155 9.99167 6.44204 10.1113C6.49396 10.2341 6.57739 10.353 6.6934 10.4668L6.70092 10.4743L8.91666 12.6973C9.24787 13.0303 9.28476 13.5448 9.02874 13.9183C8.85973 14.18 8.6968 14.4583 8.53925 14.7505C8.37168 15.0605 8.22129 15.3635 8.08522 15.6607C7.94378 15.9693 7.81094 16.2852 7.68597 16.6063C7.57282 16.8971 7.45788 17.2215 7.34115 17.5753C7.20759 17.9806 6.83054 18.2377 6.42592 18.2377L3.01889 18.2381C2.85489 18.2381 2.71095 18.2635 2.58527 18.3144C2.46137 18.3652 2.34679 18.4425 2.24223 18.5475L2.2383 18.5518C2.13338 18.6567 2.05568 18.7709 2.00483 18.8948C1.95363 19.0205 1.92857 19.1648 1.92857 19.3284V23.606C1.92857 23.7571 1.95256 23.8917 2.00125 24.0088C2.05282 24.1334 2.1366 24.2555 2.25333 24.3765L2.25441 24.3772C2.36004 24.4832 2.47319 24.5617 2.59279 24.6114C2.71596 24.663 2.85776 24.6888 3.01889 24.6888H6.13875C6.61319 24.6888 7.00743 25.0314 7.088 25.483C7.16964 25.8253 7.25414 26.1422 7.34258 26.4304C7.43962 26.7463 7.54919 27.0635 7.67344 27.3818C7.79017 27.6851 7.92266 28.0002 8.07018 28.3268C8.22093 28.6609 8.36845 28.9652 8.51168 29.2406C8.71113 29.6223 8.62841 30.0771 8.33766 30.366L8.33838 30.3667L5.91209 32.7859L5.8967 32.8009C5.7857 32.9062 5.70477 33.0165 5.65464 33.1318C5.60594 33.2428 5.5816 33.3745 5.5816 33.5278C5.5816 33.68 5.60738 33.8157 5.65822 33.9353C5.71408 34.0663 5.80145 34.192 5.91961 34.312L8.89482 37.3216C9.01119 37.4294 9.13258 37.5081 9.25969 37.5579C9.38716 37.6084 9.53182 37.6331 9.69367 37.6331C9.85695 37.6331 10.0041 37.6077 10.1337 37.5565C10.2583 37.5074 10.3754 37.4322 10.4839 37.3305L12.6893 35.0901C13.0219 34.7521 13.5429 34.7116 13.9203 34.9723C14.1814 35.1406 14.4589 35.3028 14.7503 35.46C15.0604 35.6279 15.3634 35.7783 15.6606 35.914C15.9692 36.0558 16.285 36.1886 16.6062 36.3133C16.897 36.426 17.221 36.5413 17.5752 36.6581C17.9805 36.7916 18.2376 37.1687 18.2376 37.5733L18.2379 40.9814C18.2379 41.1447 18.2634 41.289 18.3146 41.4147C18.3654 41.539 18.4428 41.6532 18.5477 41.7581L18.5495 41.7603L18.5512 41.7581C18.7614 41.9683 19.0192 42.0718 19.3279 42.0718H23.6047C23.7565 42.0718 23.8908 42.0478 24.0082 41.9991C24.1328 41.9475 24.2549 41.8637 24.3753 41.747L24.3767 41.7459C24.4823 41.6399 24.5607 41.5271 24.6109 41.4076C24.6628 41.2844 24.6886 41.1429 24.6886 40.9818V37.8612C24.6886 37.3871 25.0305 36.9925 25.4824 36.9123C25.8244 36.8307 26.1413 36.7458 26.4299 36.6577C26.7453 36.5607 27.0629 36.4511 27.3809 36.3272C27.6845 36.2101 28 36.0776 28.3273 35.9301C28.6603 35.7794 28.965 35.6322 29.2393 35.489C29.6217 35.2895 30.0765 35.3726 30.3654 35.663L30.3661 35.6623L32.7852 38.0882L32.7999 38.1036C32.9063 38.2153 33.0166 38.2959 33.1315 38.346C33.2439 38.3944 33.3796 38.4191 33.5415 38.4191C33.7001 38.4191 33.838 38.3933 33.9569 38.3421C34.0765 38.2902 34.1878 38.2103 34.2891 38.1033C34.3002 38.0911 34.3121 38.0793 34.325 38.0674L37.3216 35.1055C37.4287 34.9895 37.5078 34.8677 37.5572 34.7406C37.6077 34.6131 37.6328 34.4681 37.6328 34.3063C37.6328 34.143 37.6077 33.9958 37.5565 33.8662C37.5068 33.7416 37.4319 33.6248 37.3299 33.5163L35.0898 31.3106C34.7514 30.978 34.7113 30.4573 34.9716 30.0796C35.1403 29.8185 35.3025 29.541 35.4597 29.2499C35.6276 28.9402 35.778 28.6369 35.9137 28.3397C36.0551 28.031 36.188 27.7152 36.313 27.394C36.4254 27.1033 36.541 26.7788 36.6578 26.4247C36.7913 26.0194 37.1684 25.7623 37.5734 25.7623L40.9808 25.7619C41.1444 25.7619 41.2891 25.7365 41.4144 25.6853C41.5383 25.6344 41.6529 25.5571 41.7578 25.4525L41.7613 25.4486C41.8663 25.3433 41.9447 25.2291 41.9948 25.1049C42.046 24.9795 42.0711 24.8352 42.0711 24.6716V20.394C42.0711 20.2429 42.0474 20.1083 41.9984 19.9909C41.9472 19.8666 41.8634 19.7441 41.7467 19.6231L41.7452 19.622C41.6396 19.516 41.5265 19.438 41.4069 19.3879C41.2844 19.3363 41.1426 19.3105 40.9811 19.3105H37.8612C37.3807 19.3105 36.9829 18.96 36.9095 18.5006C36.8339 18.1987 36.7487 17.8925 36.652 17.5817C36.5589 17.2835 36.4501 16.968 36.3226 16.6346C36.3162 16.6185 36.3108 16.6021 36.3058 16.5856C36.1848 16.2687 36.0609 15.9708 35.9338 15.6918C35.7959 15.39 35.6498 15.0981 35.4951 14.816C35.2882 14.4354 35.3651 13.9763 35.6537 13.6827V13.6823L38.0797 11.2209C38.0872 11.2134 38.0944 11.2059 38.1022 11.1984C38.2136 11.0935 38.2945 10.9832 38.345 10.8679C38.3933 10.7569 38.4184 10.6255 38.4184 10.4722C38.4184 10.32 38.3926 10.184 38.3414 10.0644C38.2856 9.9333 38.1982 9.80798 38.08 9.68766L38.0793 9.68695L35.0862 6.70098L35.0826 6.69775ZM35.4629 4.6707C35.8217 4.82217 36.1475 5.04382 36.4411 5.33744L36.4419 5.33779L39.4428 8.332L39.4504 8.33952C39.7393 8.63314 39.9603 8.95648 40.1114 9.31097C40.2675 9.67656 40.3463 10.0636 40.3463 10.4722C40.3463 10.8868 40.2657 11.2743 40.1071 11.6363C39.9524 11.9915 39.7264 12.3073 39.4342 12.5863L37.5125 14.536C37.5691 14.6538 37.6256 14.773 37.6804 14.8937C37.8344 15.2296 37.9755 15.5661 38.1037 15.9031C38.1108 15.9181 38.1169 15.9335 38.1226 15.9493C38.2505 16.2848 38.3729 16.6414 38.4897 17.0167C38.5273 17.1377 38.5638 17.2595 38.5989 17.3823H40.9808C41.3947 17.3823 41.7821 17.4582 42.1452 17.61C42.5018 17.7593 42.8241 17.9796 43.1116 18.2692L43.132 18.2896C43.4153 18.5826 43.6301 18.9055 43.7762 19.26C43.9259 19.6206 44 19.9984 44 20.394V24.6712C44 25.0827 43.9273 25.4679 43.7805 25.8278C43.6337 26.1869 43.4149 26.5132 43.1224 26.8064L43.1209 26.8075L43.1188 26.81L43.1174 26.8114C42.8237 27.104 42.4979 27.3235 42.1377 27.4703C41.7775 27.6167 41.3922 27.6898 40.9811 27.6898H38.2566C38.2089 27.818 38.1595 27.9505 38.1062 28.0858C37.9697 28.4364 37.8222 28.7869 37.6622 29.1371C37.4964 29.4991 37.3277 29.8411 37.1558 30.1601C37.0993 30.2647 37.0413 30.3689 36.9818 30.4731L38.6827 32.1474C38.6952 32.1592 38.707 32.1711 38.7199 32.184C38.9988 32.479 39.2087 32.8066 39.3501 33.1647C39.4919 33.5242 39.5621 33.9052 39.5621 34.3055C39.5621 34.7044 39.4923 35.0822 39.3515 35.4403C39.2108 35.7973 39.0031 36.1235 38.7271 36.4192C38.7174 36.4293 38.7074 36.4397 38.697 36.4497L35.6785 39.4335C35.3952 39.7303 35.0762 39.9574 34.7181 40.1113C34.3565 40.2674 33.9655 40.3466 33.5426 40.3466C33.1286 40.3466 32.7383 40.2657 32.3717 40.1077C32.0086 39.9506 31.6878 39.7232 31.4081 39.4281L29.4946 37.5096C29.3668 37.5712 29.2414 37.6295 29.1197 37.6847C28.7938 37.8315 28.4454 37.9765 28.0756 38.1194C27.7279 38.2547 27.3651 38.3797 26.9888 38.495C26.8635 38.5333 26.74 38.5698 26.6182 38.6046V40.9814C26.6182 41.395 26.5419 41.7828 26.3901 42.1455C26.2404 42.5025 26.0209 42.8244 25.7306 43.1123L25.7101 43.1331C25.4172 43.4156 25.0939 43.6301 24.7401 43.7769C24.3792 43.9262 24.0014 44.0004 23.6058 44.0004H19.3283C18.4872 44.0004 17.7767 43.7103 17.1881 43.1217L17.1899 43.1199C16.8962 42.8259 16.676 42.499 16.5292 42.1384C16.3824 41.7782 16.3094 41.3932 16.3094 40.9818V38.2572C16.1808 38.2096 16.0487 38.1598 15.913 38.1068C15.5628 37.9704 15.2122 37.8229 14.8621 37.6625C14.5 37.497 14.1581 37.328 13.8387 37.1558C13.7345 37.0996 13.6303 37.0416 13.5261 36.9821L11.8518 38.683C11.8399 38.6955 11.8278 38.7077 11.8152 38.7199C11.5202 38.9995 11.1926 39.2093 10.8345 39.3504C10.475 39.4922 10.094 39.5628 9.69367 39.5628C9.29478 39.5628 8.91666 39.4929 8.55895 39.3519C8.20195 39.2111 7.87611 39.0035 7.57998 38.7277L7.58034 38.727C7.56996 38.7177 7.55957 38.7077 7.54991 38.6973L4.54892 35.6616C4.26032 35.3679 4.03939 35.0442 3.88828 34.6897C3.73252 34.3238 3.65339 33.9371 3.65339 33.5289C3.65339 33.1142 3.73395 32.7268 3.89222 32.3644C4.0487 32.0067 4.27571 31.6891 4.57148 31.4084L6.49038 29.4948C6.42879 29.367 6.37007 29.2417 6.31492 29.1188C6.16776 28.7934 6.0231 28.4457 5.88058 28.0761C5.74523 27.7285 5.61991 27.3657 5.50461 26.989C5.4663 26.8633 5.42977 26.7402 5.39504 26.6184H3.01889C2.60496 26.6184 2.21717 26.5422 1.8548 26.3903C1.49745 26.241 1.17554 26.0212 0.888014 25.7311L0.867246 25.7096C0.58437 25.4171 0.369886 25.0938 0.223436 24.7396C0.0741205 24.3787 0 24.0009 0 23.606V19.3284C0 18.917 0.0730463 18.5317 0.219855 18.1718C0.366664 17.812 0.585445 17.4858 0.878346 17.1925L0.878704 17.1922L0.880852 17.1904L0.882643 17.1886C1.17626 16.8957 1.5021 16.6765 1.86232 16.5297C2.22218 16.3829 2.60747 16.3102 3.01889 16.3102H5.74344C5.79071 16.1817 5.84084 16.0495 5.89383 15.9138C6.0299 15.5636 6.17778 15.2131 6.3382 14.8625C6.50363 14.5005 6.67228 14.1586 6.84487 13.8395C6.90216 13.7332 6.9616 13.6268 7.02247 13.5205L5.34634 11.839L5.34563 11.8386C5.0495 11.5475 4.82535 11.2199 4.67246 10.8578C4.51598 10.4883 4.43864 10.0994 4.43864 9.69447C4.43864 9.2902 4.51562 8.90492 4.67102 8.53717C4.82499 8.17301 5.047 7.84538 5.33811 7.55427L5.3399 7.55606L8.33193 4.55684L8.33945 4.54932C8.63307 4.26071 8.95641 4.03978 9.31089 3.88867C9.67684 3.73291 10.0636 3.65342 10.4721 3.65342C10.8864 3.65342 11.2738 3.73398 11.6362 3.89225C11.9914 4.0473 12.3072 4.27288 12.5862 4.56543L14.5344 6.48542C14.6515 6.42741 14.7682 6.37191 14.8846 6.3182C15.1843 6.17998 15.5152 6.04069 15.8772 5.90033C15.8926 5.89316 15.9083 5.88672 15.9241 5.88063C16.2718 5.74528 16.6349 5.61995 17.0115 5.50466C17.1369 5.46634 17.2604 5.42982 17.3822 5.39508V3.01855C17.3822 2.60498 17.4584 2.21719 17.6102 1.85482C17.7596 1.49746 17.9798 1.17555 18.2694 0.887663L18.2899 0.867253C18.5828 0.584375 18.9057 0.370247 19.2599 0.223796C19.6208 0.0741211 19.9986 0 20.3942 0H24.671C25.0821 0 25.4677 0.0726888 25.8276 0.219499C26.1892 0.367025 26.5165 0.58724 26.8116 0.881934C27.103 1.17412 27.3229 1.50068 27.4704 1.86198C27.6172 2.22184 27.6899 2.60713 27.6899 3.0182V5.74313C27.8185 5.79076 27.9502 5.84089 28.0863 5.89352C28.4361 6.02959 28.7863 6.17747 29.1369 6.33753C29.4992 6.50296 29.8412 6.67197 30.1599 6.84456C30.2669 6.90221 30.3733 6.9613 30.4796 7.02217L32.1608 5.34603L32.1615 5.34567C32.4526 5.04954 32.7806 4.82539 33.1419 4.67249C33.5118 4.51602 33.8999 4.43867 34.3049 4.43867C34.7099 4.43867 35.0952 4.5153 35.4629 4.6707ZM21.9998 12.6564C22.6375 12.6564 23.2599 12.7173 23.8668 12.8383C24.4633 12.9576 25.0549 13.1406 25.6403 13.3876L25.6468 13.3905L25.6482 13.3876C26.2071 13.629 26.7371 13.9172 27.2384 14.2531C27.735 14.5857 28.1951 14.9614 28.617 15.3792L28.6205 15.3832C29.0388 15.8053 29.4144 16.2651 29.747 16.7621C30.0829 17.2634 30.3708 17.7934 30.6121 18.3523C30.6232 18.3788 30.6332 18.4053 30.6422 18.4322C30.8735 18.994 31.0472 19.5608 31.161 20.1334C31.2828 20.7407 31.3429 21.3626 31.3429 22C31.3429 22.6377 31.2828 23.2601 31.161 23.867C31.0422 24.4639 30.8588 25.0547 30.6121 25.6405L30.6093 25.647L30.6121 25.6484C30.3708 26.2074 30.0825 26.7369 29.747 27.2383C29.414 27.7353 29.0384 28.195 28.6205 28.6172L28.617 28.6211C28.1944 29.0394 27.735 29.415 27.2377 29.7476C26.7371 30.0835 26.2068 30.3714 25.6482 30.6127C25.6217 30.6238 25.5952 30.6342 25.5676 30.6428C25.0062 30.8745 24.439 31.0478 23.8668 31.162C23.2599 31.2834 22.6372 31.3439 21.9998 31.3439C21.3621 31.3439 20.7401 31.2834 20.1332 31.162C19.5363 31.0428 18.9451 30.8594 18.3593 30.6127L18.3529 30.6099L18.3518 30.6127C17.7929 30.3714 17.2626 30.0831 16.7616 29.7476C16.2646 29.415 15.8049 29.0394 15.383 28.6211L15.3795 28.6172C14.9612 28.1947 14.5853 27.7353 14.253 27.2379C13.9175 26.7369 13.6292 26.2066 13.3882 25.6484C13.3768 25.6219 13.3668 25.5954 13.3578 25.5682C13.1261 25.0064 12.9528 24.4396 12.8386 23.867C12.7176 23.2601 12.6567 22.6377 12.6567 22C12.6567 21.3623 12.7172 20.7403 12.8386 20.1334C12.9578 19.5365 13.1412 18.9453 13.3882 18.3598L13.3907 18.3534L13.3882 18.3523C13.6292 17.7934 13.9178 17.2634 14.253 16.7625C14.5856 16.2651 14.9612 15.8057 15.3795 15.3832L15.3834 15.3796C15.8052 14.9617 16.265 14.5861 16.7616 14.2535C17.2629 13.9179 17.7932 13.6293 18.3522 13.388C18.3787 13.3765 18.4052 13.3665 18.4324 13.3579C18.9942 13.1262 19.5606 12.9533 20.1332 12.8391C20.7401 12.7173 21.3621 12.6564 21.9998 12.6564ZM23.4901 14.729C23.0089 14.6327 22.5126 14.5847 21.9998 14.5847C21.4874 14.5847 20.9911 14.6327 20.5095 14.729C20.0419 14.8224 19.5954 14.9563 19.17 15.1307C19.1514 15.14 19.1324 15.1494 19.1127 15.1576C18.6479 15.3585 18.2204 15.5891 17.8308 15.8497C17.4384 16.1122 17.0753 16.4094 16.7408 16.7403C16.4096 17.0751 16.1124 17.4389 15.8496 17.8317C15.5889 18.2209 15.3583 18.6481 15.1578 19.1129L15.1553 19.1118C14.9688 19.5547 14.827 20.0209 14.7289 20.5101C14.6329 20.9913 14.5849 21.4876 14.5849 22C14.5849 22.5124 14.6329 23.0087 14.7289 23.4903C14.8223 23.9579 14.9566 24.4045 15.131 24.8299C15.1403 24.8488 15.1496 24.8674 15.1578 24.8871C15.3583 25.3519 15.5889 25.7787 15.8493 26.168C16.1121 26.5608 16.4093 26.9246 16.7408 27.2594C17.0753 27.5906 17.4387 27.8874 17.8312 28.1499C18.2204 28.4106 18.6476 28.6412 19.1127 28.8421L19.1116 28.8446C19.5549 29.0311 20.0208 29.1733 20.5099 29.2707C20.9911 29.367 21.4878 29.4146 22.0002 29.4146C22.5126 29.4146 23.0092 29.3666 23.4905 29.2707C23.9585 29.1772 24.4046 29.0433 24.8304 28.8689C24.8486 28.8596 24.868 28.8503 24.8877 28.8421C25.3521 28.6412 25.7793 28.4106 26.1688 28.1499C26.5613 27.8874 26.9247 27.5902 27.2592 27.2594C27.5907 26.9246 27.8879 26.5611 28.1507 26.1683C28.4111 25.7791 28.6417 25.3519 28.8418 24.8871L28.8447 24.8882C29.0312 24.4453 29.1734 23.9791 29.2712 23.4903C29.3671 23.0087 29.4151 22.5124 29.4151 22C29.4151 21.4876 29.3668 20.9913 29.2712 20.5101C29.1773 20.0421 29.0438 19.5959 28.869 19.1702C28.8594 19.1515 28.8508 19.1326 28.8418 19.1129C28.6417 18.6481 28.4111 18.2209 28.15 17.8317C27.8879 17.4389 27.5904 17.0751 27.2592 16.7406C26.9247 16.4098 26.5613 16.1126 26.1688 15.8501C25.7793 15.5894 25.3521 15.3588 24.8877 15.1579L24.8884 15.1554C24.4454 14.9689 23.9796 14.8267 23.4901 14.729Z" fill="white"/>
</g>
<defs>
<clipPath id="clip0_499_114">
<rect width="44" height="44" fill="white"/>
</clipPath>
</defs>
</svg>
