<svg width="38" height="43" viewBox="0 0 38 43" fill="none" xmlns="http://www.w3.org/2000/svg">
<g clip-path="url(#clip0_499_120)">
<path fill-rule="evenodd" clip-rule="evenodd" d="M14.0891 22.5988C13.5699 22.5988 13.1503 22.1054 13.1503 21.5C13.1503 20.8911 13.5699 20.4012 14.0891 20.4012H26.4962C27.0153 20.4012 27.435 20.8946 27.435 21.5C27.435 22.1089 27.0153 22.5988 26.4962 22.5988H14.0891ZM16.6317 40.7954C17.2504 40.7954 17.7518 41.2888 17.7518 41.8977C17.7518 42.5066 17.2504 43 16.6317 43H2.60659C1.88826 43 1.23751 42.7131 0.764552 42.2476C0.291596 41.7822 0 41.1418 0 40.435V2.56502C0 1.85815 0.291596 1.21777 0.764552 0.75236C1.23751 0.286947 1.88826 0 2.60659 0H34.6182C35.3365 0 35.9873 0.290446 36.4602 0.75236C36.9332 1.21777 37.2248 1.85815 37.2248 2.56502V20.1108C37.2248 20.7196 36.7234 21.2131 36.1046 21.2131C35.4859 21.2131 34.9845 20.7196 34.9845 20.1108V2.56502C34.9845 2.46704 34.9418 2.37606 34.8742 2.31307C34.8067 2.24658 34.7178 2.20459 34.6182 2.20459H2.60659C2.50702 2.20459 2.41456 2.24658 2.347 2.30957C2.28299 2.37956 2.24031 2.46704 2.24031 2.56502V40.4315C2.24031 40.5295 2.28299 40.6204 2.347 40.6834C2.41456 40.7499 2.50702 40.7919 2.60659 40.7919H16.6317V40.7954ZM35.0983 26.0142C34.9169 25.8427 34.7071 25.7622 34.4653 25.7657C34.2235 25.7692 34.0172 25.8602 33.8465 26.0387L32.4561 27.4629L36.3571 31.1687L37.7617 29.7305C37.9289 29.5625 38 29.3455 37.9964 29.1076C37.9929 28.8731 37.9075 28.6597 37.7368 28.4987L35.0983 26.0142ZM27.8119 39.8961C27.2963 40.057 26.7842 40.225 26.2721 40.3895C25.7565 40.5575 25.2444 40.7289 24.7324 40.8969C23.5197 41.2888 22.8405 41.5058 22.6983 41.5443C22.5596 41.5863 22.6414 41.0264 22.9472 39.8611L23.9109 36.2043L31.2186 28.7227L35.116 32.4145L27.8119 39.8961ZM14.0891 30.4268C13.5699 30.4268 13.1467 29.9264 13.1467 29.3105C13.1467 28.6947 13.5699 28.1943 14.0891 28.1943H20.2019C20.7211 28.1943 21.1443 28.6947 21.1443 29.3105C21.1443 29.9264 20.7211 30.4268 20.2019 30.4268H14.0891ZM14.0891 14.7882C13.5699 14.7882 13.1503 14.2948 13.1503 13.6895C13.1503 13.0806 13.5699 12.5907 14.0891 12.5907H26.4962C27.0153 12.5907 27.435 13.0841 27.435 13.6895C27.435 14.2983 27.0153 14.7882 26.4962 14.7882H14.0891ZM8.70522 27.8058C9.43777 27.8058 10.0281 28.3902 10.0281 29.1076C10.0281 29.8285 9.43421 30.4093 8.70522 30.4093C7.97267 30.4093 7.38237 29.825 7.38237 29.1076C7.38237 28.3902 7.97623 27.8058 8.70522 27.8058ZM8.70522 20.1003C9.43777 20.1003 10.0281 20.6847 10.0281 21.402C10.0281 22.1229 9.43421 22.7038 8.70522 22.7038C7.97267 22.7038 7.38237 22.1194 7.38237 21.402C7.38237 20.6847 7.97623 20.1003 8.70522 20.1003ZM8.70522 12.3947C9.43777 12.3947 10.0281 12.9791 10.0281 13.6965C10.0281 14.4173 9.43421 14.9982 8.70522 14.9982C7.97267 14.9982 7.38237 14.4138 7.38237 13.6965C7.38237 12.9756 7.97623 12.3947 8.70522 12.3947Z" fill="white"/>
</g>
<defs>
<clipPath id="clip0_499_120">
<rect width="38" height="43" fill="white"/>
</clipPath>
</defs>
</svg>
