<svg width="775" height="676" viewBox="0 0 775 676" fill="none" xmlns="http://www.w3.org/2000/svg">
<path d="M579.645 578.755C557.75 604.527 525.023 618.521 491.264 616.547L305.429 605.678L135.05 612.263C77.5295 614.487 40.7403 551.708 70.7931 502.612C77.4279 491.773 86.8107 482.881 97.9902 476.837L215.762 413.17C255.566 391.652 300.924 382.606 345.938 387.208L485.46 401.474L495.889 401.313C588.466 399.883 639.59 508.193 579.645 578.755Z" fill="#141516" fill-opacity="0.4"/>
<path d="M136.001 299.524C136.001 173.527 244.096 74.6723 369.592 85.9016L438.362 92.0551C451.866 93.2635 465.452 93.2515 478.955 92.0192L541.249 86.3338C666.759 74.8789 775.001 173.692 775.001 299.723C775.001 418.065 679.066 514 560.724 514H350.477C232.025 514 136.001 417.976 136.001 299.524Z" fill="#F51B1B"/>
<path d="M521.861 0L456.01 31.6572L390.451 0L382.001 8.58L432.992 65.0896L456.01 41.7166L479.32 65.0896L530.311 8.58L521.861 0Z" fill="#F51B1B"/>
<path d="M379.984 119.833L456.438 106.607L532.321 121.116L542.148 117.439L483.245 92.1847L456.475 102.2L429.539 91.7324L370.22 115.991L379.984 119.833Z" fill="#BD1616" fill-opacity="0.62"/>
</svg>
