<svg width="775" height="676" viewBox="0 0 775 676" fill="none" xmlns="http://www.w3.org/2000/svg">
<path d="M579.155 578.755C557.26 604.527 524.533 618.521 490.774 616.547L304.939 605.678L134.56 612.263C77.0393 614.487 40.2501 551.708 70.3029 502.612V502.612C76.9377 491.773 86.3205 482.881 97.5 476.837L215.272 413.17C255.076 391.652 300.434 382.606 345.447 387.208L484.969 401.474L495.399 401.313C587.976 399.883 639.1 508.193 579.155 578.755V578.755Z" fill="#141516" fill-opacity="0.4"/>
<path d="M135.512 299.524C135.512 173.527 243.606 74.6723 369.102 85.9016L437.873 92.0551C451.377 93.2635 464.963 93.2515 478.465 92.0192L540.76 86.3338C666.27 74.8789 774.512 173.692 774.512 299.723V299.723C774.512 418.065 678.577 514 560.235 514H349.988C231.536 514 135.512 417.976 135.512 299.524V299.524Z" fill="#89D600"/>
<path d="M521.372 0L455.521 31.6572L389.962 0L381.512 8.58L432.502 65.0896L455.521 41.7166L478.831 65.0896L529.822 8.58L521.372 0Z" fill="#89D600"/>
<path d="M379.494 119.833L455.949 106.607L531.831 121.116L541.659 117.439L482.756 92.1847L455.986 102.2L429.05 91.7324L369.73 115.991L379.494 119.833Z" fill="#324F00" fill-opacity="0.18"/>
</svg>
